# xmcd
#
# Track frame offsets: 
#        150
#        18878
#        37437
#        64846
#        87732
#        115860
#        123616
#        151264
#
# Disc length: 2201 seconds
#
# Revision: 0
# Processed by: cddbd v1.5.2PL0 Copyright (c) Steve Scherf et al.
# Submitted via: ExactAudioCopy v0.95b3
#
DISCID=6d089708
DTITLE=Triumph  - Just A Game - Remastered  FLAC
DYEAR=1900
DGENRE=
TTITLE0=Movin' On
TTITLE1=Lay It On The Line
TTITLE2=Young Enough to Cry
TTITLE3=American Girls
TTITLE4=Just A Game
TTITLE5=Fantasy Serenade
TTITLE6=Hold On
TTITLE7=Suitcase Blues
EXTD=
EXTT0=
EXTT1=
EXTT2=
EXTT3=
EXTT4=
EXTT5=
EXTT6=
EXTT7=
PLAYORDER=
